<svg width="38" height="50" viewBox="0 0 38 50" xmlns="http://www.w3.org/2000/svg" xmlns:xlink="http://www.w3.org/1999/xlink">
  <defs>
    <path d="M18.8860735 0C8.61100338 0 .25126726 7.98542124.25126726 17.7998965c0 3.2495066.92687906 6.4298405 2.69475502 9.2208772L18.2298042 49.5147594c.1490785.221996.4018637.3539067.6708531.3539067.2706097 0 .5217745-.1335194.6724734-.3555153L34.8488105 26.985383c1.748431-2.765298 2.6720692-5.9424146 2.6720692-9.1854865C37.5208797 7.98542124 29.1611436 0 18.8860735 0z" id="b"/>
    <path d="M26.369446 18.3953073c0 3.9134615-3.1611233 7.09925-7.0481092 7.09925s-7.0497933-3.1857885-7.0497933-7.09925c0-3.9152365 3.1628074-7.0992501 7.0497933-7.0992501s7.0481092 3.1840136 7.0481092 7.0992501z" id="d"/>
  </defs>
  <g fill="none" fill-rule="evenodd">
    <path d="M19.0817717 56.5765766c3.0827274 0 5.5817717-1.9199321 5.5817717-4.2882883C24.6635434 49.9199321 22.1644991 48 19.0817717 48S13.5 49.9199321 13.5 52.2882883c0 2.3683562 2.4990443 4.2882883 5.5817717 4.2882883z" fill-opacity=".13" fill="#282C35" filter="url(#a)"/>
    <g>
      <use fill="#dd4b3e" xlink:href="#b"/>
      <use fill="#000" filter="url(#c)" xlink:href="#b"/>
    </g>
    <g>
      <use fill="#802d27" xlink:href="#d"/>
      <use fill="#000" filter="url(#e)" xlink:href="#d"/>
    </g>
  </g>
</svg>