<svg xmlns="http://www.w3.org/2000/svg" xmlns:xlink="http://www.w3.org/1999/xlink" version="1.1" x="0px" y="0px" viewBox="0 0 100 100" enable-background="new 0 0 100 100" xml:space="preserve"><g><path d="M34.8,18.8c1,0,1.8,0.8,1.8,1.8c0,1-0.8,1.8-1.8,1.8h-22c-1.5,2-2.8,4.1-4,6.3h38.5c1,0,1.8,0.8,1.8,1.8   c0,1-0.8,1.8-1.8,1.8H7.2C5.6,36.4,4.5,40.6,4,45h12.1c1,0,1.8,0.8,1.8,1.8c0,1-0.8,1.8-1.8,1.8H3.7c0,0.2,0,0.5,0,0.7h92.5   C96.1,33.2,87.5,19,74.8,10.9H51c-1,0-1.8-0.8-1.8-1.8v0c0-1,0.8-1.8,1.8-1.8h16.7C62.3,5,56.3,3.7,50,3.7   c-13.5,0-25.7,5.8-34.1,15H34.8z M60.9,26.6c1.5-5.7,7.3-8.4,12.9-6.1c5.6,2.3,8.9,8.9,7.4,14.6c-1.5,5.7-7.3,8.4-12.9,6.1   C62.7,38.8,59.3,32.3,60.9,26.6z"/><path d="M70.1,34c1.7,0.7,3.5-0.1,4-1.9c0.5-1.8-0.6-3.8-2.3-4.5c-1.7-0.7-3.5,0.1-4,1.9C67.4,31.3,68.4,33.3,70.1,34z"/><path d="M59.3,87.4c-1,0-1.8-0.8-1.8-1.8c0-1,0.8-1.8,1.8-1.8h22.4c2.8-2.6,5.3-5.6,7.4-8.8h-4.7c-1,0-1.8-0.8-1.8-1.8   c0-1,0.8-1.8,1.8-1.8h6.8c1.4-2.8,2.6-5.8,3.5-8.8H71.8c-1,0-1.8-0.8-1.8-1.8c0-1,0.8-1.8,1.8-1.8h23.7c0.4-1.9,0.6-3.8,0.7-5.7   H3.8c0.1,1.3,0.2,2.6,0.4,3.8h11.9c1,0,1.8,0.8,1.8,1.8c0,1-0.8,1.8-1.8,1.8H4.9c0.2,0.9,0.4,1.7,0.7,2.6h41.7c1,0,1.8,0.8,1.8,1.8   c0,1-0.8,1.8-1.8,1.8H6.9c1.2,3.1,2.8,6.1,4.6,8.8h17.1c1,0,1.8,0.8,1.8,1.8c0,1-0.8,1.8-1.8,1.8H14.2c2.8,3.4,6,6.4,9.6,8.8H43   c1,0,1.8,0.8,1.8,1.8c0,1-0.8,1.8-1.8,1.8H30.1c6,2.9,12.8,4.5,19.9,4.5c10.2,0,19.6-3.3,27.2-8.9H59.3z"/></g></svg>